<?xml version="1.0" encoding="utf-8"?>
<!-- Generator: Adobe Illustrator 15.1.0, SVG Export Plug-In . SVG Version: 6.00 Build 0)  -->
<!DOCTYPE svg PUBLIC "-//W3C//DTD SVG 1.1//EN" "http://www.w3.org/Graphics/SVG/1.1/DTD/svg11.dtd">
<svg version="1.1" id="Layer_1" xmlns="http://www.w3.org/2000/svg" xmlns:xlink="http://www.w3.org/1999/xlink" x="0px" y="0px"
	 width="65.18px" height="100px" viewBox="0 0 65.18 100" enable-background="new 0 0 65.18 100" xml:space="preserve">
<path d="M35.479,39.365c-0.168,0.449-0.277,0.91-0.324,1.379c-0.053,0.518-0.039,1.039,0.057,1.555
	c0.058,0.309,0.131,0.617,0.241,0.918c0.515,1.392,1.539,2.499,2.888,3.119c0.734,0.338,1.514,0.508,2.315,0.508
	c0.996,0,1.949-0.279,2.781-0.764c0.45-0.262,0.863-0.584,1.227-0.964c0.325-0.339,0.605-0.725,0.839-1.145
	c0.067-0.121,0.143-0.237,0.201-0.365c0,0,11.078-24.098,11.102-24.147c0.023-0.052,0.334-0.974,0.4-1.345
	c0.434-2.428-0.783-4.941-3.127-6.02c-0.732-0.338-1.512-0.508-2.313-0.508c-1.688,0-3.258,0.78-4.3,2.052
	c-0.293,0.359-0.551,0.75-0.748,1.183c0.001-0.004,0.002-0.008,0.004-0.011l-0.006,0.012c-0.001,0.001-0.002,0.004-0.004,0.006
	L35.616,38.97C35.558,39.099,35.527,39.233,35.479,39.365z"/>
<path d="M40.476,12.83c0.235,0.236,0.388,0.544,0.5,0.881c0.263,0.799,0.219,1.822,0.001,2.859
	c-0.112,0.529-0.262,1.054-0.442,1.551c-0.068,0.191-0.137,0.384-0.214,0.564c-0.113,0.275-0.262,0.595-0.434,0.933
	c-1.504,2.975-5.374,7.975-14.463,8.285c-0.005,0-0.012,0.001-0.017,0.001L21.62,35.79c2.366,0.559,6.577,1.881,10.227,4.73
	l12.345-26.859c0.202-0.438,0.32-0.889,0.401-1.344c0.432-2.431-0.783-4.945-3.127-6.022c-0.734-0.336-1.514-0.508-2.313-0.508
	c-1.688,0-3.257,0.779-4.298,2.052c-0.296,0.359-0.554,0.751-0.754,1.184c0.002-0.004,0.002-0.006,0.006-0.01l-0.006,0.01
	l-0.003,0.007l-1.56,3.395h7.532L40.476,12.83z"/>
<path d="M25.861,12.424h1.352h2.268l2.087-4.549c0.2-0.438,0.319-0.89,0.399-1.344c0.433-2.429-0.782-4.943-3.126-6.021
	C28.105,0.174,27.327,0,26.527,0c-1.688,0-3.258,0.781-4.299,2.053c-0.293,0.359-0.552,0.751-0.751,1.185
	c0,0.002-0.004,0.004-0.004,0.006l-4.213,9.18h4.614H25.861z"/>
<polygon points="31.578,7.861 31.581,7.853 31.578,7.861 31.573,7.874 "/>
<polygon points="55.551,28.84 55.55,28.84 55.55,28.841 "/>
<polygon points="44.949,45.252 44.952,45.248 44.95,45.249 "/>
<polygon points="44.954,45.241 44.952,45.245 44.952,45.246 "/>
<g>
	<path d="M38.862,92.954c1.833-0.246,3.513-0.967,4.918-2.04l-4.918-4.919V92.954z"/>
	<path d="M36.083,92.954v-6.959l-4.917,4.919C32.57,91.987,34.25,92.708,36.083,92.954z"/>
	<path d="M27.056,82.642c0,2.371,0.806,4.554,2.146,6.308l6.881-6.883v-9.738C30.996,73.011,27.056,77.37,27.056,82.642z"/>
	<path d="M65.18,33.276c0-0.624-0.348-1.915-0.362-1.927c-0.785-2.115-2.805-3.628-5.191-3.628c-0.501,0-0.979,0.088-1.441,0.213
		c-0.803,0.216-1.528,0.607-2.145,1.131c-0.724,0.617-1.282,1.405-1.615,2.315c-0.004,0.012-0.006,0.026-0.012,0.038l-6.939,14.99
		h0.002c-0.205,0.447-0.308,0.913-0.332,1.377c-0.008,0.166,0,0.33,0.013,0.492c0.106,1.305,0.888,2.518,2.16,3.103
		c0.604,0.279,1.255,0.362,1.89,0.297c0.828-0.086,1.627-0.432,2.242-0.996c0.295-0.271,0.539-0.6,0.731-0.962l3.605-7.787
		l2.521,1.163l0.25-0.543l-3.742,8.143l-0.006,0.012c-0.062,0.135-0.137,0.259-0.211,0.386c-0.155,0.278-0.327,0.548-0.518,0.799
		c-0.391,0.519-0.86,0.967-1.379,1.343c-1.006,0.733-2.213,1.183-3.494,1.247c-0.111,0.007-0.218,0.021-0.327,0.021h-0.001
		c-0.943,0-1.859-0.202-2.723-0.598c-1.292-0.596-2.284-1.566-2.936-2.72c-0.314-0.557-0.537-1.157-0.678-1.781
		c-0.054-0.233-0.096-0.466-0.123-0.705c-0.43,0.22-0.872,0.412-1.337,0.555c-0.776,0.238-1.593,0.368-2.425,0.368c0,0,0,0-0.001,0
		c-0.965,0-1.61-0.172-2.511-0.497c0.512,1.676,0.831,3.528,0.831,5.63v10.526h-2.777V54.755c0-2.521-0.788-4.656-1.598-6.478
		c-3.794-8.545-14.629-10.023-15.182-10.092l-1.914-0.24l6.146-12.802h0.875c0.232,0,0.43-0.029,0.652-0.035
		c0.538-0.016,1.074-0.033,1.568-0.084c5.297-0.549,8.203-3.018,9.739-5.135c0.133-0.183,0.249-0.367,0.366-0.548
		c0.272-0.426,0.499-0.842,0.69-1.248c0.219-0.463,0.389-0.906,0.517-1.313c0.195-0.628,0.298-1.174,0.328-1.578H15.408
		c-2.75,0-5.154,1.458-6.5,3.64c-0.314,0.51-0.572,1.056-0.762,1.635l-7.218,15.48l-0.371,0.796C0.201,37.635,0,38.597,0,39.608
		c0,1.382,0.373,2.675,1.014,3.794l0.781,1.12l17.738,23.491v31.984h33.331V100h2.777l0.002-23.609l8.821-17.957
		c0.124-0.223,0.243-0.446,0.336-0.687c0.233-0.594,0.368-1.235,0.379-1.908C65.181,55.805,65.18,33.276,65.18,33.276z
		 M37.473,95.836c-7.276,0-13.194-5.919-13.194-13.194s5.918-13.193,13.194-13.193c7.274,0,13.194,5.918,13.194,13.193
		S44.747,95.836,37.473,95.836z"/>
	<path d="M38.862,72.328v9.738l6.881,6.883c1.34-1.754,2.146-3.937,2.146-6.308C47.89,77.37,43.949,73.011,38.862,72.328z"/>
</g>
</svg>
