<svg xmlns="http://www.w3.org/2000/svg" xmlns:xlink="http://www.w3.org/1999/xlink" version="1.0" x="0px" y="0px" width="65.586px" height="100px" viewBox="0 0 65.586 100" overflow="visible" enable-background="new 0 0 65.586 100" xml:space="preserve">
    <path d="M32.796,19.596c5.417-0.002,9.799-4.389,9.799-9.795c0-5.413-4.383-9.797-9.799-9.8c-5.411,0.003-9.787,4.387-9.787,9.8 C23.009,15.207,27.385,19.594,32.796,19.596z"/>
    <path d="M65.493,48.064c-0.101-0.463-0.296-0.881-0.54-1.259l0.013-0.007l-0.032-0.029c-0.322-0.489-0.751-0.889-1.241-1.183 l-7.548-7.18l-7.639-14.208l0,0l-0.355-0.661l-0.016,0.012c-0.912-1.39-2.51-2.214-4.213-2.108H21.663 c-1.704-0.105-3.301,0.718-4.212,2.108l-0.016-0.012l-0.356,0.661l0,0L9.44,38.406l-7.548,7.18 c-0.492,0.293-0.92,0.693-1.241,1.183l-0.032,0.029l0.012,0.007c-0.245,0.378-0.438,0.796-0.54,1.259 c-0.46,2.084,0.855,4.148,2.939,4.608c0.081,0.017,0.156,0.015,0.236,0.027c-0.483,0.941-0.782,1.99-0.782,3.12 c0,2.941,1.854,5.432,4.449,6.416L6.921,62.26l11.457,4.958l-2.341,1.179c-0.242,0.097-0.469,0.223-0.693,0.352l-0.028,0.015l0,0 c-1.694,0.978-2.851,2.787-2.851,4.884c0,3.125,2.535,5.657,5.66,5.657c0.694,0,1.354-0.143,1.969-0.373l0.008,0.019l0.166-0.07 c0.04-0.02,0.083-0.037,0.125-0.057l12.399-5.364l12.399,5.364c0.042,0.02,0.085,0.037,0.125,0.057l0.166,0.07l0.008-0.019 c0.615,0.23,1.275,0.373,1.968,0.373c3.125,0,5.66-2.532,5.66-5.657c0-2.097-1.155-3.906-2.85-4.884l0,0l-0.027-0.015 c-0.226-0.129-0.451-0.255-0.694-0.352l-2.341-1.179l11.456-4.958l-0.012-0.024c2.596-0.984,4.45-3.475,4.45-6.416 c0-1.13-0.3-2.179-0.783-3.12c0.081-0.013,0.155-0.011,0.236-0.027C64.638,52.212,65.954,50.148,65.493,48.064z M9.592,48.963 l6.715-5.888l3.291-5.324l1.116,16.112l-7.962-4.013l-0.006,0.012C11.807,49.329,10.74,49.002,9.592,48.963z M52.834,49.851 l-6.847,3.45l1.148-13.692l2.143,3.466l6.714,5.888c-1.147,0.039-2.215,0.365-3.152,0.899L52.834,49.851z"/>
    <ellipse cx="32.792" cy="93.115" rx="31.664" ry="6.235"/>
</svg>